<mxfile host="app.diagrams.net" agent="Mozilla/5.0 (Windows NT 10.0; Win64; x64; rv:132.0) Gecko/20100101 Firefox/132.0" version="24.8.4">
  <diagram name="PÃ¡gina-1" id="2UFubnlOPNcLVtzOg3cz">
    <mxGraphModel dx="1235" dy="632" grid="1" gridSize="10" guides="1" tooltips="1" connect="1" arrows="1" fold="1" page="1" pageScale="1" pageWidth="827" pageHeight="1169" math="0" shadow="0">
      <root>
        <mxCell id="0" />
        <mxCell id="1" parent="0" />
        <mxCell id="4KdWAY72Oj23wz-Gb6Jc-74" value="Character" style="swimlane;fontStyle=1;align=center;verticalAlign=top;childLayout=stackLayout;horizontal=1;startSize=26;horizontalStack=0;resizeParent=1;resizeParentMax=0;resizeLast=0;collapsible=1;marginBottom=0;whiteSpace=wrap;html=1;" vertex="1" parent="1">
          <mxGeometry x="334" y="320" width="160" height="134" as="geometry" />
        </mxCell>
        <mxCell id="4KdWAY72Oj23wz-Gb6Jc-75" value="&lt;div&gt;&lt;strong&gt;+ age&lt;/strong&gt;&lt;/div&gt;&lt;div&gt;+ &lt;strong&gt;height&lt;/strong&gt;&lt;br&gt;&lt;/div&gt;&lt;div&gt;+&lt;strong&gt; genre&lt;/strong&gt; &lt;br&gt;&lt;/div&gt;&lt;div&gt;&lt;strong&gt;+ life level&lt;/strong&gt;&lt;/div&gt;" style="text;strokeColor=none;fillColor=none;align=left;verticalAlign=top;spacingLeft=4;spacingRight=4;overflow=hidden;rotatable=0;points=[[0,0.5],[1,0.5]];portConstraint=eastwest;whiteSpace=wrap;html=1;" vertex="1" parent="4KdWAY72Oj23wz-Gb6Jc-74">
          <mxGeometry y="26" width="160" height="74" as="geometry" />
        </mxCell>
        <mxCell id="4KdWAY72Oj23wz-Gb6Jc-76" value="" style="line;strokeWidth=1;fillColor=none;align=left;verticalAlign=middle;spacingTop=-1;spacingLeft=3;spacingRight=3;rotatable=0;labelPosition=right;points=[];portConstraint=eastwest;strokeColor=inherit;" vertex="1" parent="4KdWAY72Oj23wz-Gb6Jc-74">
          <mxGeometry y="100" width="160" height="8" as="geometry" />
        </mxCell>
        <mxCell id="4KdWAY72Oj23wz-Gb6Jc-77" value="- no methods" style="text;strokeColor=none;fillColor=none;align=left;verticalAlign=top;spacingLeft=4;spacingRight=4;overflow=hidden;rotatable=0;points=[[0,0.5],[1,0.5]];portConstraint=eastwest;whiteSpace=wrap;html=1;" vertex="1" parent="4KdWAY72Oj23wz-Gb6Jc-74">
          <mxGeometry y="108" width="160" height="26" as="geometry" />
        </mxCell>
        <mxCell id="4KdWAY72Oj23wz-Gb6Jc-78" value="Soldier" style="swimlane;fontStyle=1;align=center;verticalAlign=top;childLayout=stackLayout;horizontal=1;startSize=26;horizontalStack=0;resizeParent=1;resizeParentMax=0;resizeLast=0;collapsible=1;marginBottom=0;whiteSpace=wrap;html=1;" vertex="1" parent="1">
          <mxGeometry y="585" width="160" height="94" as="geometry" />
        </mxCell>
        <mxCell id="4KdWAY72Oj23wz-Gb6Jc-79" value="&lt;div&gt;+ weapon&lt;br&gt;&lt;/div&gt;&lt;div&gt;&lt;br&gt;&lt;/div&gt;" style="text;strokeColor=none;fillColor=none;align=left;verticalAlign=top;spacingLeft=4;spacingRight=4;overflow=hidden;rotatable=0;points=[[0,0.5],[1,0.5]];portConstraint=eastwest;whiteSpace=wrap;html=1;" vertex="1" parent="4KdWAY72Oj23wz-Gb6Jc-78">
          <mxGeometry y="26" width="160" height="34" as="geometry" />
        </mxCell>
        <mxCell id="4KdWAY72Oj23wz-Gb6Jc-80" value="" style="line;strokeWidth=1;fillColor=none;align=left;verticalAlign=middle;spacingTop=-1;spacingLeft=3;spacingRight=3;rotatable=0;labelPosition=right;points=[];portConstraint=eastwest;strokeColor=inherit;" vertex="1" parent="4KdWAY72Oj23wz-Gb6Jc-78">
          <mxGeometry y="60" width="160" height="8" as="geometry" />
        </mxCell>
        <mxCell id="4KdWAY72Oj23wz-Gb6Jc-81" value="- no methods" style="text;strokeColor=none;fillColor=none;align=left;verticalAlign=top;spacingLeft=4;spacingRight=4;overflow=hidden;rotatable=0;points=[[0,0.5],[1,0.5]];portConstraint=eastwest;whiteSpace=wrap;html=1;" vertex="1" parent="4KdWAY72Oj23wz-Gb6Jc-78">
          <mxGeometry y="68" width="160" height="26" as="geometry" />
        </mxCell>
        <mxCell id="4KdWAY72Oj23wz-Gb6Jc-91" style="edgeStyle=orthogonalEdgeStyle;rounded=0;orthogonalLoop=1;jettySize=auto;html=1;entryX=0.5;entryY=0;entryDx=0;entryDy=0;endArrow=none;endFill=0;" edge="1" parent="1" source="4KdWAY72Oj23wz-Gb6Jc-82" target="4KdWAY72Oj23wz-Gb6Jc-78">
          <mxGeometry relative="1" as="geometry">
            <mxPoint x="290" y="540" as="targetPoint" />
          </mxGeometry>
        </mxCell>
        <mxCell id="4KdWAY72Oj23wz-Gb6Jc-93" style="edgeStyle=orthogonalEdgeStyle;rounded=0;orthogonalLoop=1;jettySize=auto;html=1;entryX=0.5;entryY=0;entryDx=0;entryDy=0;endArrow=none;endFill=0;" edge="1" parent="1" source="4KdWAY72Oj23wz-Gb6Jc-82" target="4KdWAY72Oj23wz-Gb6Jc-87">
          <mxGeometry relative="1" as="geometry">
            <mxPoint x="490" y="520" as="targetPoint" />
          </mxGeometry>
        </mxCell>
        <mxCell id="4KdWAY72Oj23wz-Gb6Jc-82" value="" style="verticalAlign=bottom;html=1;ellipse;fillColor=strokeColor;fontFamily=Helvetica;fontSize=11;fontColor=default;" vertex="1" parent="1">
          <mxGeometry x="412" y="520" width="4" height="4" as="geometry" />
        </mxCell>
        <mxCell id="4KdWAY72Oj23wz-Gb6Jc-83" value="" style="edgeStyle=elbowEdgeStyle;html=1;endSize=12;endArrow=block;endFill=0;elbow=horizontal;rounded=0;labelBackgroundColor=default;fontFamily=Helvetica;fontSize=11;fontColor=default;shape=connector;entryX=0.5;entryY=1;entryDx=0;entryDy=0;" edge="1" source="4KdWAY72Oj23wz-Gb6Jc-82" parent="1" target="4KdWAY72Oj23wz-Gb6Jc-74">
          <mxGeometry x="1" relative="1" as="geometry">
            <mxPoint x="370" y="490" as="targetPoint" />
            <Array as="points">
              <mxPoint x="414" y="520" />
            </Array>
          </mxGeometry>
        </mxCell>
        <mxCell id="4KdWAY72Oj23wz-Gb6Jc-87" value="&lt;strong&gt;Citizen&lt;/strong&gt;" style="swimlane;fontStyle=1;align=center;verticalAlign=top;childLayout=stackLayout;horizontal=1;startSize=26;horizontalStack=0;resizeParent=1;resizeParentMax=0;resizeLast=0;collapsible=1;marginBottom=0;whiteSpace=wrap;html=1;" vertex="1" parent="1">
          <mxGeometry x="667" y="585" width="160" height="94" as="geometry" />
        </mxCell>
        <mxCell id="4KdWAY72Oj23wz-Gb6Jc-88" value="&lt;div&gt;+ &lt;strong&gt;tool&lt;/strong&gt;&lt;br&gt;&lt;/div&gt;" style="text;strokeColor=none;fillColor=none;align=left;verticalAlign=top;spacingLeft=4;spacingRight=4;overflow=hidden;rotatable=0;points=[[0,0.5],[1,0.5]];portConstraint=eastwest;whiteSpace=wrap;html=1;" vertex="1" parent="4KdWAY72Oj23wz-Gb6Jc-87">
          <mxGeometry y="26" width="160" height="34" as="geometry" />
        </mxCell>
        <mxCell id="4KdWAY72Oj23wz-Gb6Jc-89" value="" style="line;strokeWidth=1;fillColor=none;align=left;verticalAlign=middle;spacingTop=-1;spacingLeft=3;spacingRight=3;rotatable=0;labelPosition=right;points=[];portConstraint=eastwest;strokeColor=inherit;" vertex="1" parent="4KdWAY72Oj23wz-Gb6Jc-87">
          <mxGeometry y="60" width="160" height="8" as="geometry" />
        </mxCell>
        <mxCell id="4KdWAY72Oj23wz-Gb6Jc-90" value="- no methods" style="text;strokeColor=none;fillColor=none;align=left;verticalAlign=top;spacingLeft=4;spacingRight=4;overflow=hidden;rotatable=0;points=[[0,0.5],[1,0.5]];portConstraint=eastwest;whiteSpace=wrap;html=1;" vertex="1" parent="4KdWAY72Oj23wz-Gb6Jc-87">
          <mxGeometry y="68" width="160" height="26" as="geometry" />
        </mxCell>
        <mxCell id="4KdWAY72Oj23wz-Gb6Jc-103" value="&lt;strong&gt;Bowman&lt;/strong&gt;" style="swimlane;fontStyle=1;align=center;verticalAlign=top;childLayout=stackLayout;horizontal=1;startSize=26;horizontalStack=0;resizeParent=1;resizeParentMax=0;resizeLast=0;collapsible=1;marginBottom=0;whiteSpace=wrap;html=1;" vertex="1" parent="1">
          <mxGeometry y="800" width="160" height="94" as="geometry" />
        </mxCell>
        <mxCell id="4KdWAY72Oj23wz-Gb6Jc-104" value="&lt;div&gt;&lt;b&gt;+  movement type&lt;/b&gt;&lt;/div&gt;&lt;div&gt;&lt;b&gt;+ damage caused&lt;/b&gt;&lt;/div&gt;&lt;div&gt;&lt;b&gt;&lt;br&gt;&lt;/b&gt;&lt;/div&gt;" style="text;strokeColor=none;fillColor=none;align=left;verticalAlign=top;spacingLeft=4;spacingRight=4;overflow=hidden;rotatable=0;points=[[0,0.5],[1,0.5]];portConstraint=eastwest;whiteSpace=wrap;html=1;" vertex="1" parent="4KdWAY72Oj23wz-Gb6Jc-103">
          <mxGeometry y="26" width="160" height="34" as="geometry" />
        </mxCell>
        <mxCell id="4KdWAY72Oj23wz-Gb6Jc-105" value="" style="line;strokeWidth=1;fillColor=none;align=left;verticalAlign=middle;spacingTop=-1;spacingLeft=3;spacingRight=3;rotatable=0;labelPosition=right;points=[];portConstraint=eastwest;strokeColor=inherit;" vertex="1" parent="4KdWAY72Oj23wz-Gb6Jc-103">
          <mxGeometry y="60" width="160" height="8" as="geometry" />
        </mxCell>
        <mxCell id="4KdWAY72Oj23wz-Gb6Jc-106" value="- no methods" style="text;strokeColor=none;fillColor=none;align=left;verticalAlign=top;spacingLeft=4;spacingRight=4;overflow=hidden;rotatable=0;points=[[0,0.5],[1,0.5]];portConstraint=eastwest;whiteSpace=wrap;html=1;" vertex="1" parent="4KdWAY72Oj23wz-Gb6Jc-103">
          <mxGeometry y="68" width="160" height="26" as="geometry" />
        </mxCell>
        <mxCell id="4KdWAY72Oj23wz-Gb6Jc-107" value="&lt;strong&gt;Knight&lt;/strong&gt;" style="swimlane;fontStyle=1;align=center;verticalAlign=top;childLayout=stackLayout;horizontal=1;startSize=26;horizontalStack=0;resizeParent=1;resizeParentMax=0;resizeLast=0;collapsible=1;marginBottom=0;whiteSpace=wrap;html=1;" vertex="1" parent="1">
          <mxGeometry x="200" y="800" width="160" height="124" as="geometry" />
        </mxCell>
        <mxCell id="4KdWAY72Oj23wz-Gb6Jc-108" value="&lt;div&gt;+ &lt;strong&gt;movement type&lt;br&gt;&lt;/strong&gt;&lt;/div&gt;&lt;div&gt;&lt;strong&gt;+ damage&lt;/strong&gt; caused&lt;/div&gt;&lt;div&gt;+ life level of its &lt;strong&gt;horse&lt;/strong&gt;&lt;/div&gt;" style="text;strokeColor=none;fillColor=none;align=left;verticalAlign=top;spacingLeft=4;spacingRight=4;overflow=hidden;rotatable=0;points=[[0,0.5],[1,0.5]];portConstraint=eastwest;whiteSpace=wrap;html=1;" vertex="1" parent="4KdWAY72Oj23wz-Gb6Jc-107">
          <mxGeometry y="26" width="160" height="64" as="geometry" />
        </mxCell>
        <mxCell id="4KdWAY72Oj23wz-Gb6Jc-109" value="" style="line;strokeWidth=1;fillColor=none;align=left;verticalAlign=middle;spacingTop=-1;spacingLeft=3;spacingRight=3;rotatable=0;labelPosition=right;points=[];portConstraint=eastwest;strokeColor=inherit;" vertex="1" parent="4KdWAY72Oj23wz-Gb6Jc-107">
          <mxGeometry y="90" width="160" height="8" as="geometry" />
        </mxCell>
        <mxCell id="4KdWAY72Oj23wz-Gb6Jc-110" value="- no methods" style="text;strokeColor=none;fillColor=none;align=left;verticalAlign=top;spacingLeft=4;spacingRight=4;overflow=hidden;rotatable=0;points=[[0,0.5],[1,0.5]];portConstraint=eastwest;whiteSpace=wrap;html=1;" vertex="1" parent="4KdWAY72Oj23wz-Gb6Jc-107">
          <mxGeometry y="98" width="160" height="26" as="geometry" />
        </mxCell>
        <mxCell id="4KdWAY72Oj23wz-Gb6Jc-111" value="&lt;strong&gt;Farmer&lt;/strong&gt;" style="swimlane;fontStyle=1;align=center;verticalAlign=top;childLayout=stackLayout;horizontal=1;startSize=26;horizontalStack=0;resizeParent=1;resizeParentMax=0;resizeLast=0;collapsible=1;marginBottom=0;whiteSpace=wrap;html=1;" vertex="1" parent="1">
          <mxGeometry x="470" y="800" width="160" height="124" as="geometry" />
        </mxCell>
        <mxCell id="4KdWAY72Oj23wz-Gb6Jc-112" value="&lt;div&gt;+&amp;nbsp; &lt;strong&gt;movement type&lt;/strong&gt;&lt;/div&gt;&lt;div&gt;&lt;strong&gt;+ job&lt;/strong&gt;&lt;/div&gt;&lt;div&gt;&lt;strong&gt;+ work level&lt;/strong&gt;&lt;/div&gt;" style="text;strokeColor=none;fillColor=none;align=left;verticalAlign=top;spacingLeft=4;spacingRight=4;overflow=hidden;rotatable=0;points=[[0,0.5],[1,0.5]];portConstraint=eastwest;whiteSpace=wrap;html=1;" vertex="1" parent="4KdWAY72Oj23wz-Gb6Jc-111">
          <mxGeometry y="26" width="160" height="64" as="geometry" />
        </mxCell>
        <mxCell id="4KdWAY72Oj23wz-Gb6Jc-113" value="" style="line;strokeWidth=1;fillColor=none;align=left;verticalAlign=middle;spacingTop=-1;spacingLeft=3;spacingRight=3;rotatable=0;labelPosition=right;points=[];portConstraint=eastwest;strokeColor=inherit;" vertex="1" parent="4KdWAY72Oj23wz-Gb6Jc-111">
          <mxGeometry y="90" width="160" height="8" as="geometry" />
        </mxCell>
        <mxCell id="4KdWAY72Oj23wz-Gb6Jc-114" value="- no methods" style="text;strokeColor=none;fillColor=none;align=left;verticalAlign=top;spacingLeft=4;spacingRight=4;overflow=hidden;rotatable=0;points=[[0,0.5],[1,0.5]];portConstraint=eastwest;whiteSpace=wrap;html=1;" vertex="1" parent="4KdWAY72Oj23wz-Gb6Jc-111">
          <mxGeometry y="98" width="160" height="26" as="geometry" />
        </mxCell>
        <mxCell id="4KdWAY72Oj23wz-Gb6Jc-115" value="&lt;strong&gt;Miner&lt;/strong&gt;" style="swimlane;fontStyle=1;align=center;verticalAlign=top;childLayout=stackLayout;horizontal=1;startSize=26;horizontalStack=0;resizeParent=1;resizeParentMax=0;resizeLast=0;collapsible=1;marginBottom=0;whiteSpace=wrap;html=1;" vertex="1" parent="1">
          <mxGeometry x="667" y="800" width="160" height="134" as="geometry" />
        </mxCell>
        <mxCell id="4KdWAY72Oj23wz-Gb6Jc-116" value="&lt;div&gt;+ &lt;strong&gt;movement type&lt;/strong&gt;&lt;br&gt;&lt;/div&gt;&lt;div&gt;+ the &lt;strong&gt;job&lt;/strong&gt; to be done&lt;/div&gt;&lt;div&gt;&lt;strong&gt;+ fatigue level&lt;/strong&gt;&lt;/div&gt;" style="text;strokeColor=none;fillColor=none;align=left;verticalAlign=top;spacingLeft=4;spacingRight=4;overflow=hidden;rotatable=0;points=[[0,0.5],[1,0.5]];portConstraint=eastwest;whiteSpace=wrap;html=1;" vertex="1" parent="4KdWAY72Oj23wz-Gb6Jc-115">
          <mxGeometry y="26" width="160" height="74" as="geometry" />
        </mxCell>
        <mxCell id="4KdWAY72Oj23wz-Gb6Jc-117" value="" style="line;strokeWidth=1;fillColor=none;align=left;verticalAlign=middle;spacingTop=-1;spacingLeft=3;spacingRight=3;rotatable=0;labelPosition=right;points=[];portConstraint=eastwest;strokeColor=inherit;" vertex="1" parent="4KdWAY72Oj23wz-Gb6Jc-115">
          <mxGeometry y="100" width="160" height="8" as="geometry" />
        </mxCell>
        <mxCell id="4KdWAY72Oj23wz-Gb6Jc-118" value="- no methods" style="text;strokeColor=none;fillColor=none;align=left;verticalAlign=top;spacingLeft=4;spacingRight=4;overflow=hidden;rotatable=0;points=[[0,0.5],[1,0.5]];portConstraint=eastwest;whiteSpace=wrap;html=1;" vertex="1" parent="4KdWAY72Oj23wz-Gb6Jc-115">
          <mxGeometry y="108" width="160" height="26" as="geometry" />
        </mxCell>
        <mxCell id="4KdWAY72Oj23wz-Gb6Jc-123" value="" style="verticalAlign=bottom;html=1;ellipse;fillColor=strokeColor;fontFamily=Helvetica;fontSize=11;fontColor=default;" vertex="1" parent="1">
          <mxGeometry x="78" y="713" width="4" height="4" as="geometry" />
        </mxCell>
        <mxCell id="4KdWAY72Oj23wz-Gb6Jc-124" value="" style="edgeStyle=elbowEdgeStyle;html=1;endSize=12;endArrow=block;endFill=0;elbow=horizontal;rounded=0;labelBackgroundColor=default;fontFamily=Helvetica;fontSize=11;fontColor=default;shape=connector;entryX=0.5;entryY=1;entryDx=0;entryDy=0;" edge="1" source="4KdWAY72Oj23wz-Gb6Jc-123" parent="1" target="4KdWAY72Oj23wz-Gb6Jc-78">
          <mxGeometry x="1" relative="1" as="geometry">
            <mxPoint x="80" y="690" as="targetPoint" />
          </mxGeometry>
        </mxCell>
        <mxCell id="4KdWAY72Oj23wz-Gb6Jc-125" value="" style="edgeStyle=elbowEdgeStyle;html=1;elbow=vertical;verticalAlign=bottom;endArrow=none;rounded=0;labelBackgroundColor=default;fontFamily=Helvetica;fontSize=11;fontColor=default;startSize=14;shape=connector;entryX=0.5;entryY=0;entryDx=0;entryDy=0;" edge="1" source="4KdWAY72Oj23wz-Gb6Jc-123" parent="1" target="4KdWAY72Oj23wz-Gb6Jc-107">
          <mxGeometry x="1" relative="1" as="geometry">
            <mxPoint x="500" y="710" as="targetPoint" />
            <Array as="points">
              <mxPoint x="280" y="715" />
            </Array>
          </mxGeometry>
        </mxCell>
        <mxCell id="4KdWAY72Oj23wz-Gb6Jc-126" value="" style="edgeStyle=elbowEdgeStyle;html=1;elbow=vertical;verticalAlign=bottom;endArrow=none;rounded=0;labelBackgroundColor=default;fontFamily=Helvetica;fontSize=11;fontColor=default;startSize=14;shape=connector;entryX=0.5;entryY=0;entryDx=0;entryDy=0;" edge="1" source="4KdWAY72Oj23wz-Gb6Jc-123" parent="1" target="4KdWAY72Oj23wz-Gb6Jc-103">
          <mxGeometry x="1" relative="1" as="geometry">
            <mxPoint x="360" y="710" as="targetPoint" />
            <Array as="points">
              <mxPoint x="100" y="770" />
            </Array>
          </mxGeometry>
        </mxCell>
        <mxCell id="4KdWAY72Oj23wz-Gb6Jc-127" value="" style="verticalAlign=bottom;html=1;ellipse;fillColor=strokeColor;fontFamily=Helvetica;fontSize=11;fontColor=default;" vertex="1" parent="1">
          <mxGeometry x="745" y="750" width="4" height="4" as="geometry" />
        </mxCell>
        <mxCell id="4KdWAY72Oj23wz-Gb6Jc-128" value="" style="edgeStyle=elbowEdgeStyle;html=1;endSize=12;endArrow=block;endFill=0;elbow=horizontal;rounded=0;labelBackgroundColor=default;fontFamily=Helvetica;fontSize=11;fontColor=default;shape=connector;entryX=0.512;entryY=1.041;entryDx=0;entryDy=0;entryPerimeter=0;" edge="1" source="4KdWAY72Oj23wz-Gb6Jc-127" parent="1" target="4KdWAY72Oj23wz-Gb6Jc-90">
          <mxGeometry x="1" relative="1" as="geometry">
            <mxPoint x="772" y="690" as="targetPoint" />
            <Array as="points">
              <mxPoint x="749" y="720" />
            </Array>
          </mxGeometry>
        </mxCell>
        <mxCell id="4KdWAY72Oj23wz-Gb6Jc-129" value="" style="edgeStyle=elbowEdgeStyle;html=1;elbow=vertical;verticalAlign=bottom;endArrow=none;rounded=0;labelBackgroundColor=default;fontFamily=Helvetica;fontSize=11;fontColor=default;startSize=14;shape=connector;entryX=0.5;entryY=0;entryDx=0;entryDy=0;" edge="1" source="4KdWAY72Oj23wz-Gb6Jc-127" parent="1" target="4KdWAY72Oj23wz-Gb6Jc-115">
          <mxGeometry x="1" relative="1" as="geometry">
            <mxPoint x="540" y="690" as="targetPoint" />
            <Array as="points">
              <mxPoint x="740" y="780" />
            </Array>
          </mxGeometry>
        </mxCell>
        <mxCell id="4KdWAY72Oj23wz-Gb6Jc-130" value="" style="edgeStyle=elbowEdgeStyle;html=1;elbow=vertical;verticalAlign=bottom;endArrow=none;rounded=0;labelBackgroundColor=default;fontFamily=Helvetica;fontSize=11;fontColor=default;startSize=14;shape=connector;entryX=0.5;entryY=0;entryDx=0;entryDy=0;" edge="1" source="4KdWAY72Oj23wz-Gb6Jc-127" parent="1" target="4KdWAY72Oj23wz-Gb6Jc-111">
          <mxGeometry x="1" relative="1" as="geometry">
            <mxPoint x="400" y="690" as="targetPoint" />
            <Array as="points">
              <mxPoint x="540" y="752" />
            </Array>
          </mxGeometry>
        </mxCell>
      </root>
    </mxGraphModel>
  </diagram>
</mxfile>
